<svg xmlns="http://www.w3.org/2000/svg" width="338" height="35" viewBox="0 0 338 35" fill="none">
  <path fill-rule="evenodd" clip-rule="evenodd" d="M262.786 0.307366C219.193 0.718431 190.303 2.30332 132.524 7.45339C127.442 7.90619 119.498 8.61176 114.869 9.02136C76.7391 12.3943 23.5219 20.7599 8.87956 25.6825C5.84293 26.7034 0.432861 29.5382 0.432861 30.1087C0.432861 30.203 0.685518 30.055 1.67931 29.3786C6.26097 26.2603 18.5537 23.4717 48.8236 18.6838C66.704 15.8554 86.2429 13.3021 102.337 11.6907C114.622 10.4606 172.916 5.67401 174.877 5.73449C175.28 5.74681 173.057 5.99279 169.938 6.28105C136.428 9.37819 125.017 10.6338 104.807 13.4491C89.147 15.6304 79.9605 17.23 56.4852 21.8636C47.6532 23.6068 47.9083 23.5421 47.7681 24.0806C47.4132 25.4446 48.5444 25.475 55.7982 24.2958C104.992 16.3001 134.35 13.3925 180.366 11.9589C192.747 11.5732 235.637 11.2201 234.885 11.51C234.456 11.6756 221.557 12.6906 199.942 14.2593C151.581 17.7694 120.637 21.9383 86.5687 29.5336C77.1226 31.6395 75.4275 32.3022 76.2519 33.5667C77.1226 34.9019 82.507 34.5221 108.832 31.2678C148.257 26.3938 162.898 25.0884 194.453 23.6329C201.789 23.2946 214.389 22.949 214.029 23.0961C213.928 23.1371 205.984 24.0445 196.374 25.1125C172.33 27.7844 156.901 29.7434 156.362 30.1927C155.532 30.8854 155.771 31.8844 156.84 32.1826C158.143 32.5462 161.826 32.3473 170.303 31.4553C188.688 29.5207 207.061 28.4604 234.227 27.7656C238.293 27.6616 243.027 27.498 244.747 27.402C248.749 27.1788 255.092 27.1794 258.029 27.4033C259.287 27.4991 260.851 27.6173 261.505 27.666C263.985 27.8504 255.384 26.6628 251.717 26.3144C242.526 25.4415 230.544 25.2461 216.335 25.7373C213.076 25.85 210.381 25.9138 210.346 25.8792C210.274 25.8064 213.577 25.4669 229.58 23.9026C241.85 22.7031 242.157 22.6501 242.625 21.6594C242.922 21.0308 242.625 20.2832 241.929 19.905C241.402 19.619 223.483 19.7092 213.755 20.0469C190.432 20.8568 178.073 21.5473 162.528 22.9086C146.8 24.2861 136.351 25.5173 110.218 29.0725C94.3083 31.2371 85.9311 32.2783 83.127 32.4403L81.389 32.5407L83.4929 31.9934C89.983 30.3055 111.617 26.1879 123.925 24.2979C149.493 20.3716 166.966 18.5702 206.162 15.8192C239.096 13.5078 245.841 12.8151 246.35 11.6924C246.899 10.4827 245.92 9.76407 243.21 9.38647C239.514 8.87153 193.885 9.00298 177.713 9.57509C161.856 10.1362 143.023 11.2225 133.073 12.1501C132.016 12.2487 130.864 12.3187 130.512 12.3058C127.922 12.2113 163.549 8.7366 183.933 7.09564C206.264 5.29806 223.931 4.26047 248.424 3.308C264.261 2.69232 304.686 2.94987 321.056 3.77109C336.22 4.53181 336.764 4.54211 337.224 4.0803C337.703 3.59865 337.716 3.24144 337.271 2.79453C336.705 2.22573 333.515 1.92442 326.27 1.75529C323.603 1.69297 317.717 1.44092 313.189 1.19494C308.661 0.94915 303.062 0.664753 300.748 0.562906C296.381 0.370794 272.85 0.212505 262.786 0.307366ZM182.153 5.28041C182.029 5.33078 181.782 5.33391 181.604 5.28721C181.426 5.24051 181.528 5.19934 181.829 5.19566C182.131 5.19198 182.277 5.23004 182.153 5.28041ZM179.774 5.47307C179.549 5.51664 179.137 5.51775 178.859 5.47565C178.581 5.43337 178.765 5.3977 179.268 5.39623C179.771 5.39494 179.999 5.4295 179.774 5.47307ZM177.301 5.65912C177.025 5.70122 176.572 5.70122 176.295 5.65912C176.018 5.61702 176.245 5.58264 176.798 5.58264C177.352 5.58264 177.578 5.61702 177.301 5.65912ZM129.46 12.4593C129.233 12.5031 128.863 12.5031 128.636 12.4593C128.41 12.4154 128.595 12.3795 129.048 12.3795C129.501 12.3795 129.686 12.4154 129.46 12.4593ZM127.447 12.6351C127.321 12.6862 127.116 12.6862 126.99 12.6351C126.864 12.5842 126.967 12.5424 127.218 12.5424C127.47 12.5424 127.573 12.5842 127.447 12.6351ZM263.106 27.8938C263.232 27.9449 263.437 27.9449 263.563 27.8938C263.689 27.8428 263.586 27.8011 263.334 27.8011C263.083 27.8011 262.98 27.8428 263.106 27.8938Z" fill="#01C5C7"/>
</svg>